<svg width="130" height="130" viewBox="0 0 130 130" fill="none" xmlns="http://www.w3.org/2000/svg">
<rect width="130" height="130" rx="20" fill="#5B7F84"/>
<path d="M119.444 28.0304V43.6072C119.444 46.2939 117.087 48.509 114.185 48.509H16.8153C16.5817 48.509 16.3477 48.4909 16.1142 48.4725C15.9974 48.4544 15.9 48.4544 15.7832 48.4363C15.7052 48.4182 15.6078 48.4001 15.5298 48.3636C15.4324 48.3455 15.335 48.3275 15.2571 48.2913C15.1011 48.2367 14.9455 48.2005 14.8089 48.1278C14.5947 48.0551 14.4 47.9644 14.2052 47.8551L14.1858 47.8371C14.0492 47.7644 13.913 47.692 13.7962 47.6194C13.6988 47.5647 13.6014 47.4921 13.504 47.3832C13.2313 47.1836 12.9783 46.9655 12.7637 46.7116C12.6857 46.6389 12.5884 46.5482 12.5302 46.4212C12.2962 46.1489 12.1212 45.8404 11.9652 45.5135C11.8872 45.3139 11.8092 45.132 11.751 44.9327C11.6925 44.7327 11.6342 44.5153 11.6148 44.2973C11.5757 44.0615 11.5566 43.8434 11.5566 43.6076V28.0308C11.5566 25.3257 13.9328 23.111 16.8157 23.111H114.185C114.477 23.111 114.769 23.129 115.042 23.1837C115.101 23.1837 115.178 23.2017 115.237 23.2198C115.334 23.2379 115.432 23.2563 115.51 23.2744C115.626 23.2925 115.724 23.329 115.821 23.3652C115.997 23.4379 116.172 23.4925 116.328 23.5467C116.678 23.6918 117.029 23.8918 117.341 24.0914C117.457 24.1822 117.574 24.2726 117.672 24.3818C117.788 24.4545 117.905 24.5633 118.022 24.6722L118.042 24.7084H118.061C118.918 25.598 119.444 26.7415 119.444 28.0304Z" fill="white"/>
<path opacity="0.06" d="M118.041 24.708C117.262 24.3088 116.386 24.0549 115.451 24.0549H18.0813C15.1791 24.0549 12.8223 26.2515 12.8223 28.9566V44.5334C12.8223 44.8419 12.8611 45.1866 12.9197 45.4593C12.9391 45.5862 12.9783 45.7316 13.0171 45.8408C13.2313 46.6031 13.6402 47.2747 14.1858 47.8378C14.0492 47.7651 13.913 47.6928 13.7962 47.6201C13.6988 47.5655 13.6014 47.4928 13.504 47.3839C13.2313 47.1843 12.9783 46.9662 12.7637 46.7123C12.6857 46.6397 12.5884 46.5489 12.5302 46.4219C12.2962 46.1496 12.1212 45.8411 11.9652 45.5142C11.8872 45.3146 11.8092 45.1327 11.751 44.9334C11.6925 44.7334 11.6342 44.5161 11.6148 44.298C11.5757 44.0622 11.5566 43.8441 11.5566 43.6083V28.0315C11.5566 25.3264 13.9328 23.1117 16.8157 23.1117H114.185C114.477 23.1117 114.769 23.1298 115.042 23.1844C115.101 23.1844 115.178 23.2025 115.237 23.2206C115.334 23.2386 115.432 23.2571 115.51 23.2752C115.627 23.2932 115.724 23.3298 115.821 23.3659C115.997 23.4386 116.172 23.4932 116.328 23.5475C116.678 23.6925 117.029 23.8925 117.341 24.0921C117.458 24.1829 117.574 24.2733 117.672 24.3825C117.788 24.4552 117.905 24.5641 118.022 24.6729L118.041 24.708Z" fill="white"/>
<path d="M98.9691 40.7133C97.0697 40.7133 95.5156 39.2648 95.5156 37.4944C95.5156 35.724 97.0697 34.2755 98.9691 34.2755C100.869 34.2755 102.423 35.724 102.423 37.4944C102.423 39.2648 100.869 40.7133 98.9691 40.7133Z" fill="#C55288"/>
<path d="M107.338 40.7133C105.439 40.7133 103.885 39.2648 103.885 37.4944C103.885 35.724 105.439 34.2755 107.338 34.2755C109.238 34.2755 110.792 35.724 110.792 37.4944C110.792 39.2648 109.238 40.7133 107.338 40.7133Z" fill="#B2C757"/>
<path d="M83.3271 37.1338H16.7148V42.5798H83.3271V37.1338Z" fill="#446058"/>
<path opacity="0.08" d="M83.3271 41.6461H16.7148V42.9694H83.3271V41.6461Z" fill="#E3E2E2"/>
<path d="M83.3271 28.4001H16.7148V33.8462H83.3271V28.4001Z" fill="#446058"/>
<path opacity="0.08" d="M83.3271 33.1844H16.7148V34.5078H83.3271V33.1844Z" fill="#E3E2E2"/>
<path d="M119.444 58.8207V74.3794C119.444 77.0845 117.087 79.2993 114.185 79.2993H16.8153C15.8608 79.2993 14.9649 79.045 14.2052 78.6458C14.1858 78.6277 14.1858 78.6277 14.1858 78.6092C14.1466 78.5912 14.0884 78.555 14.0492 78.555C13.991 78.5185 13.9518 78.4823 13.8932 78.4461C13.7376 78.3734 13.6011 78.2642 13.4843 78.1557C13.1529 77.938 12.8611 77.6476 12.6078 77.3207C12.491 77.1937 12.3936 77.0484 12.2962 76.8668C12.1794 76.6853 12.0626 76.5218 11.9846 76.3041L11.9652 76.286C11.8872 76.1226 11.8092 75.9045 11.751 75.7049C11.6925 75.4871 11.6342 75.2691 11.6148 75.0514C11.5757 74.8336 11.5566 74.6156 11.5566 74.3798V58.8211C11.5566 56.1344 13.9328 53.9193 16.8157 53.9193H114.185C114.477 53.9193 114.769 53.9193 115.042 53.9739C115.101 53.9739 115.178 53.992 115.237 54.0104C115.334 54.0466 115.432 54.0466 115.51 54.065C115.627 54.0831 115.724 54.1193 115.821 54.1558C115.997 54.1923 116.172 54.2828 116.328 54.3554C116.971 54.5916 117.535 54.9728 118.022 55.4628C118.918 56.3517 119.444 57.5318 119.444 58.8207Z" fill="white"/>
<path opacity="0.06" d="M118.022 55.4626C117.262 55.0814 116.366 54.8272 115.451 54.8272H18.0813C15.1791 54.8272 12.8223 57.0603 12.8223 59.747V75.3238C12.8223 76.5946 13.3287 77.7201 14.1858 78.6097C14.1858 78.6278 14.1858 78.6278 14.2052 78.6463C14.1466 78.6097 14.0884 78.5916 14.0492 78.5555C13.991 78.519 13.9518 78.4828 13.8932 78.4466C13.7376 78.3739 13.6011 78.2647 13.4843 78.1562C13.1529 77.9385 12.8611 77.6481 12.6078 77.3212C12.491 77.1942 12.3936 77.0489 12.2962 76.8673C12.1794 76.6858 12.0626 76.5223 11.9846 76.3046L11.9652 76.2865C11.8872 76.123 11.8092 75.905 11.751 75.7053C11.6925 75.4876 11.6342 75.2696 11.6148 75.0519C11.5757 74.8341 11.5566 74.6161 11.5566 74.3803V58.8215C11.5566 56.1349 13.9328 53.9198 16.8157 53.9198H114.185C114.477 53.9198 114.769 53.9198 115.042 53.9744C115.101 53.9744 115.178 53.9925 115.237 54.0109C115.334 54.0471 115.432 54.0471 115.51 54.0655C115.627 54.0836 115.724 54.1198 115.821 54.1563C115.997 54.1928 116.172 54.2832 116.328 54.3559C116.971 54.591 117.535 54.9726 118.022 55.4626Z" fill="white"/>
<path d="M98.9691 71.4979C97.0697 71.4979 95.5156 70.0494 95.5156 68.279C95.5156 66.5085 97.0697 65.0601 98.9691 65.0601C100.869 65.0601 102.423 66.5085 102.423 68.279C102.423 70.0494 100.869 71.4979 98.9691 71.4979Z" fill="#C55288"/>
<path d="M107.338 71.4979C105.439 71.4979 103.885 70.0494 103.885 68.279C103.885 66.5085 105.439 65.0601 107.338 65.0601C109.238 65.0601 110.792 66.5085 110.792 68.279C110.792 70.0494 109.238 71.4979 107.338 71.4979Z" fill="#B2C757"/>
<path d="M83.3271 67.9181H16.7148V73.3645H83.3271V67.9181Z" fill="#446058"/>
<path opacity="0.08" d="M83.3271 72.4308H16.7148V73.7541H83.3271V72.4308Z" fill="#E3E2E2"/>
<path d="M83.3271 59.1847H16.7148V64.6307H83.3271V59.1847Z" fill="#446058"/>
<path opacity="0.08" d="M83.3271 63.969H16.7148V65.2923H83.3271V63.969Z" fill="#E3E2E2"/>
<path d="M119.444 89.5933V105.188C119.444 107.893 117.087 110.09 114.185 110.09H16.8153C15.8608 110.09 14.9649 109.836 14.2052 109.418C14.069 109.346 13.9324 109.273 13.7962 109.2C13.6988 109.109 13.6014 109.055 13.504 108.964C13.3679 108.856 13.2507 108.783 13.1339 108.656L12.7637 108.311C12.7246 108.238 12.6663 108.166 12.6078 108.111C12.491 107.966 12.3936 107.839 12.2962 107.657C12.1794 107.476 12.0626 107.276 11.9846 107.094C11.9846 107.076 11.9652 107.076 11.9652 107.076C11.8872 106.876 11.8092 106.695 11.751 106.514C11.6925 106.277 11.6342 106.078 11.6148 105.842C11.5757 105.642 11.5566 105.406 11.5566 105.189V89.5936C11.5566 86.8885 13.9328 84.71 16.8157 84.71H114.185C114.321 84.71 114.458 84.71 114.594 84.728C114.711 84.728 114.828 84.7461 114.925 84.7642C115.042 84.7823 115.178 84.7823 115.295 84.8007C115.685 84.8734 116.074 85.0004 116.425 85.1638C116.561 85.2365 116.678 85.2727 116.815 85.3638C117.262 85.5996 117.691 85.89 118.042 86.2715H118.061C118.84 87.052 119.327 88.087 119.425 89.2305C119.444 89.339 119.444 89.4663 119.444 89.5933Z" fill="white"/>
<path opacity="0.06" d="M118.041 86.2707C117.301 85.8711 116.464 85.6534 115.587 85.6353H18.0813C15.1791 85.6353 12.8223 87.85 12.8223 90.5186V106.113C12.8223 107.402 13.3481 108.546 14.2052 109.418C14.069 109.345 13.9324 109.272 13.7962 109.2C13.6988 109.109 13.6014 109.055 13.504 108.964C13.3679 108.855 13.2507 108.782 13.1339 108.655L12.7637 108.31C12.7246 108.237 12.6663 108.165 12.6078 108.11C12.491 107.965 12.3936 107.838 12.2962 107.657C12.1794 107.475 12.0626 107.275 11.9846 107.094C11.9846 107.076 11.9652 107.076 11.9652 107.076C11.8872 106.876 11.8092 106.695 11.751 106.513C11.6925 106.277 11.6342 106.077 11.6148 105.842C11.5757 105.642 11.5566 105.406 11.5566 105.188V89.5931C11.5566 86.888 13.9328 84.7095 16.8157 84.7095H114.185C114.321 84.7095 114.458 84.7095 114.594 84.7276L114.613 84.7456C114.711 84.7456 114.828 84.7456 114.925 84.7637C115.042 84.7818 115.178 84.7818 115.295 84.8002C115.685 84.8729 116.074 84.9999 116.425 85.1633C116.561 85.236 116.678 85.2722 116.815 85.3633C117.262 85.5988 117.691 85.8895 118.041 86.2707Z" fill="white"/>
<path d="M98.9691 102.282C97.0697 102.282 95.5156 100.834 95.5156 99.0635C95.5156 97.2931 97.0697 95.8446 98.9691 95.8446C100.869 95.8446 102.423 97.2931 102.423 99.0635C102.423 100.834 100.869 102.282 98.9691 102.282Z" fill="#C55288"/>
<path d="M107.338 102.282C105.439 102.282 103.885 100.834 103.885 99.0635C103.885 97.2931 105.439 95.8446 107.338 95.8446C109.238 95.8446 110.792 97.2931 110.792 99.0635C110.792 100.834 109.238 102.282 107.338 102.282Z" fill="#B2C757"/>
<path d="M83.3271 98.7026H16.7148V104.149H83.3271V98.7026Z" fill="#446058"/>
<path opacity="0.08" d="M83.3271 103.215H16.7148V104.538H83.3271V103.215Z" fill="#E3E2E2"/>
<path d="M83.3271 89.9686H16.7148V95.415H83.3271V89.9686Z" fill="#446058"/>
<path opacity="0.08" d="M83.3271 94.7537H16.7148V96.077H83.3271V94.7537Z" fill="#E3E2E2"/>
</svg>
